<?xml version="1.0" standalone="no"?>
<!DOCTYPE svg PUBLIC "-//W3C//DTD SVG 20010904//EN"
 "http://www.w3.org/TR/2001/REC-SVG-20010904/DTD/svg10.dtd">
<svg version="1.0" xmlns="http://www.w3.org/2000/svg"
 width="150.000000pt" height="150.000000pt" viewBox="0 0 150.000000 150.000000"
 preserveAspectRatio="xMidYMid meet">

<g transform="translate(0.000000,150.000000) scale(0.100000,-0.100000)"
fill="#000000" stroke="none">
<path d="M474 1231 c-63 -29 -89 -72 -89 -151 0 -77 24 -119 85 -150 139 -71
297 72 236 213 -39 92 -140 130 -232 88z m106 -26 c14 -17 5 -51 -16 -59 -35
-13 -73 41 -47 67 12 12 50 7 63 -8z m-90 -50 c26 -32 -13 -81 -47 -59 -35 22
-23 74 17 74 10 0 23 -7 30 -15z m180 0 c26 -32 -13 -81 -47 -59 -35 22 -23
74 17 74 10 0 23 -7 30 -15z m-180 -100 c26 -32 -13 -81 -47 -59 -35 22 -23
74 17 74 10 0 23 -7 30 -15z m174 -1 c31 -30 8 -69 -36 -62 -26 3 -37 41 -18
64 16 18 35 18 54 -2z m-90 -50 c31 -30 13 -67 -30 -62 -35 4 -47 44 -18 65
23 17 29 16 48 -3z"/>
<path d="M856 1227 c-114 -65 -121 -210 -14 -290 33 -24 105 -33 151 -18 76
25 128 123 107 201 -30 110 -148 162 -244 107z m115 -28 c9 -18 7 -25 -10 -43
-17 -16 -25 -18 -39 -10 -19 12 -27 37 -18 60 8 22 54 17 67 -7z m-91 -48 c5
-11 7 -26 4 -35 -8 -21 -42 -30 -59 -16 -15 13 -20 51 -8 63 13 14 53 6 63
-12z m180 -1 c22 -40 -26 -80 -58 -48 -25 25 -6 68 30 68 9 0 22 -9 28 -20z
m-186 -96 c19 -19 20 -25 3 -48 -21 -29 -61 -17 -65 18 -5 43 32 61 62 30z
m180 0 c31 -30 8 -69 -36 -62 -26 3 -37 41 -18 64 16 18 35 18 54 -2z m-88
-55 c24 -27 8 -54 -32 -54 -23 0 -30 5 -32 24 -3 15 3 30 14 38 24 17 28 17
50 -8z"/>
<path d="M382 929 c-14 -5 -25 -20 -29 -40 -6 -30 -7 -31 -49 -26 l-44 5 0
-36 c0 -28 3 -33 12 -24 7 7 27 12 45 12 l33 0 0 -185 c0 -233 -5 -225 140
-225 l100 0 0 -35 c0 -34 1 -35 40 -35 39 0 40 -1 40 -35 l0 -35 80 0 80 0 0
35 c0 34 1 35 40 35 39 0 40 1 40 35 l0 35 98 0 c141 0 142 1 142 144 0 62 3
115 6 119 4 3 37 -10 75 -29 l69 -34 0 140 0 140 -60 -30 c-80 -40 -88 -39
-92 12 -2 36 -8 45 -32 56 -25 13 -32 12 -77 -13 -67 -36 -142 -37 -204 -1
-58 34 -133 36 -178 4 -49 -35 -148 -37 -207 -5 -33 17 -52 22 -68 16z m406
-111 c16 -16 16 -160 0 -176 -17 -17 -319 -17 -336 0 -7 7 -12 42 -12 88 0 46
5 81 12 88 17 17 319 17 336 0z m182 -18 c0 -30 -1 -30 -55 -30 -54 0 -55 0
-55 30 0 30 1 30 55 30 54 0 55 0 55 -30z m-2 -107 l-3 -58 -50 0 -50 0 -3 58
-3 57 56 0 56 0 -3 -57z m0 -190 l3 -23 -260 0 c-261 0 -280 3 -267 36 5 12
44 14 263 12 l258 -3 3 -22z"/>
</g>
</svg>
